<?xml version="1.0" standalone="no"?><!DOCTYPE svg PUBLIC "-//W3C//DTD SVG 1.1//EN" "http://www.w3.org/Graphics/SVG/1.1/DTD/svg11.dtd"><svg t="1588663526713" class="icon" viewBox="0 0 1024 1024" version="1.1" xmlns="http://www.w3.org/2000/svg" p-id="7964" width="64" height="64" xmlns:xlink="http://www.w3.org/1999/xlink"><defs><style type="text/css"></style></defs><path d="M515.545 927.548H121.006v-78.312c20.419-72.599 100.841-115.526 179.883-126.419 79.008-10.925 118.482-51.289 129.479-66.269 10.996-14.948 6.62-68.515 0-90.3-6.578-21.809-46.187-51.82-57.551-66.253-11.365-14.419 13.323-3.581-28.797-36.128-42.085-32.524-26.336-103.286-14.352-114.423 11.917-11.107 21.575-6.01 21.575-6.01v-84.313s-0.31-99.844 21.575-120.424c21.875-20.606 79.133-6.018 79.133-6.018 22.729-22.191 46.697-31.926 57.592-35.04v-1.104c0-0.168 1.096-0.092 2.997 0.308 1.893-0.399 2.979-0.475 2.979-0.308v1.12c10.864 3.097 34.764 12.832 57.435 35.023 0 0 57.114-14.588 78.923 6.018 21.817 20.582 21.541 120.424 21.541 120.424v84.313s9.608-5.066 21.525 6.01c11.907 11.146 27.606 81.898-14.361 114.423-41.993 32.547-17.356 21.709-28.688 36.128-11.34 14.433-50.821 44.444-57.408 66.253-6.595 21.785-10.93 75.352 0 90.3 10.946 14.979 50.346 55.344 129.178 66.269 78.766 10.893 158.988 53.82 179.331 126.419v78.312h-387.45z" fill="#39CD9D" p-id="7965"></path></svg>